<svg id="visual" viewBox="0 0 900 600" width="900" height="600" xmlns="http://www.w3.org/2000/svg" xmlns:xlink="http://www.w3.org/1999/xlink" version="1.1"><g stroke-width="1" stroke-linejoin="bevel"><path d="M473 320L464 191L405 281Z" fill="#071d2e" stroke="#071d2e"></path><path d="M464 191L398 231L405 281Z" fill="#07283d" stroke="#07283d"></path><path d="M473 320L603 277L464 191Z" fill="#051625" stroke="#051625"></path><path d="M603 277L593 193L464 191Z" fill="#072133" stroke="#072133"></path><path d="M593 193L521 101L464 191Z" fill="#062c41" stroke="#062c41"></path><path d="M376 108L302 216L398 231Z" fill="#062c41" stroke="#062c41"></path><path d="M390 426L519 413L473 320Z" fill="#051625" stroke="#051625"></path><path d="M473 320L586 387L603 277Z" fill="#072538" stroke="#072538"></path><path d="M376 108L398 231L464 191Z" fill="#072538" stroke="#072538"></path><path d="M398 231L302 216L405 281Z" fill="#000e1c" stroke="#000e1c"></path><path d="M405 281L390 426L473 320Z" fill="#000e1c" stroke="#000e1c"></path><path d="M521 101L376 108L464 191Z" fill="#072133" stroke="#072133"></path><path d="M519 413L586 387L473 320Z" fill="#07283d" stroke="#07283d"></path><path d="M286 366L390 426L405 281Z" fill="#051625" stroke="#051625"></path><path d="M302 216L274 303L405 281Z" fill="#000e1c" stroke="#000e1c"></path><path d="M310 0L324 104L376 108Z" fill="#053046" stroke="#053046"></path><path d="M376 108L324 104L302 216Z" fill="#031320" stroke="#031320"></path><path d="M302 216L235 232L274 303Z" fill="#07283d" stroke="#07283d"></path><path d="M274 303L286 366L405 281Z" fill="#000e1c" stroke="#000e1c"></path><path d="M698 199L610 90L593 193Z" fill="#051625" stroke="#051625"></path><path d="M593 193L610 90L521 101Z" fill="#061a2a" stroke="#061a2a"></path><path d="M521 101L415 0L376 108Z" fill="#062c41" stroke="#062c41"></path><path d="M310 482L383 467L390 426Z" fill="#062c41" stroke="#062c41"></path><path d="M390 426L460 529L519 413Z" fill="#062c41" stroke="#062c41"></path><path d="M519 413L566 463L586 387Z" fill="#072538" stroke="#072538"></path><path d="M460 529L566 463L519 413Z" fill="#062c41" stroke="#062c41"></path><path d="M235 114L235 232L302 216Z" fill="#071d2e" stroke="#071d2e"></path><path d="M274 303L176 405L286 366Z" fill="#061a2a" stroke="#061a2a"></path><path d="M586 387L692 319L603 277Z" fill="#072538" stroke="#072538"></path><path d="M603 277L698 199L593 193Z" fill="#000e1c" stroke="#000e1c"></path><path d="M669 393L692 319L586 387Z" fill="#071d2e" stroke="#071d2e"></path><path d="M692 319L698 199L603 277Z" fill="#072133" stroke="#072133"></path><path d="M566 463L669 393L586 387Z" fill="#062c41" stroke="#062c41"></path><path d="M536 0L415 0L521 101Z" fill="#051625" stroke="#051625"></path><path d="M235 232L203 268L274 303Z" fill="#000e1c" stroke="#000e1c"></path><path d="M122 266L203 268L104 186Z" fill="#000e1c" stroke="#000e1c"></path><path d="M610 90L536 0L521 101Z" fill="#07283d" stroke="#07283d"></path><path d="M310 0L235 114L324 104Z" fill="#072133" stroke="#072133"></path><path d="M324 104L235 114L302 216Z" fill="#072538" stroke="#072538"></path><path d="M383 467L460 529L390 426Z" fill="#072538" stroke="#072538"></path><path d="M286 366L310 482L390 426Z" fill="#061a2a" stroke="#061a2a"></path><path d="M407 600L460 600L460 529Z" fill="#071d2e" stroke="#071d2e"></path><path d="M222 475L310 482L286 366Z" fill="#031320" stroke="#031320"></path><path d="M665 0L596 0L610 90Z" fill="#04344b" stroke="#04344b"></path><path d="M610 90L596 0L536 0Z" fill="#072133" stroke="#072133"></path><path d="M415 0L310 0L376 108Z" fill="#072538" stroke="#072538"></path><path d="M698 199L726 81L610 90Z" fill="#072133" stroke="#072133"></path><path d="M783 84L726 81L698 199Z" fill="#072133" stroke="#072133"></path><path d="M839 431L779 282L692 319Z" fill="#061a2a" stroke="#061a2a"></path><path d="M692 319L779 282L698 199Z" fill="#072133" stroke="#072133"></path><path d="M726 81L665 0L610 90Z" fill="#072538" stroke="#072538"></path><path d="M203 268L176 405L274 303Z" fill="#031320" stroke="#031320"></path><path d="M566 463L688 494L669 393Z" fill="#071d2e" stroke="#071d2e"></path><path d="M669 393L839 431L692 319Z" fill="#061a2a" stroke="#061a2a"></path><path d="M600 600L688 494L566 463Z" fill="#072538" stroke="#072538"></path><path d="M176 405L222 475L286 366Z" fill="#031320" stroke="#031320"></path><path d="M407 600L460 529L383 467Z" fill="#072538" stroke="#072538"></path><path d="M779 282L802 202L698 199Z" fill="#053046" stroke="#053046"></path><path d="M203 268L138 386L176 405Z" fill="#04344b" stroke="#04344b"></path><path d="M104 186L203 268L235 232Z" fill="#061a2a" stroke="#061a2a"></path><path d="M104 186L235 232L235 114Z" fill="#072538" stroke="#072538"></path><path d="M407 600L383 467L310 482Z" fill="#071d2e" stroke="#071d2e"></path><path d="M460 529L600 600L566 463Z" fill="#072538" stroke="#072538"></path><path d="M273 600L407 600L310 482Z" fill="#072538" stroke="#072538"></path><path d="M122 266L138 386L203 268Z" fill="#051625" stroke="#051625"></path><path d="M176 405L98 472L222 475Z" fill="#062c41" stroke="#062c41"></path><path d="M802 202L783 84L698 199Z" fill="#000e1c" stroke="#000e1c"></path><path d="M726 81L797 0L665 0Z" fill="#072133" stroke="#072133"></path><path d="M79 88L104 186L235 114Z" fill="#053046" stroke="#053046"></path><path d="M0 369L98 472L138 386Z" fill="#072133" stroke="#072133"></path><path d="M310 0L198 0L235 114Z" fill="#062c41" stroke="#062c41"></path><path d="M460 600L600 600L460 529Z" fill="#051625" stroke="#051625"></path><path d="M237 600L273 600L222 475Z" fill="#072538" stroke="#072538"></path><path d="M222 475L273 600L310 482Z" fill="#062c41" stroke="#062c41"></path><path d="M731 600L794 488L688 494Z" fill="#072538" stroke="#072538"></path><path d="M688 494L794 488L669 393Z" fill="#04344b" stroke="#04344b"></path><path d="M779 282L900 206L802 202Z" fill="#000e1c" stroke="#000e1c"></path><path d="M92 600L237 600L222 475Z" fill="#04344b" stroke="#04344b"></path><path d="M794 488L839 431L669 393Z" fill="#062c41" stroke="#062c41"></path><path d="M900 89L797 0L783 84Z" fill="#051625" stroke="#051625"></path><path d="M900 89L783 84L802 202Z" fill="#072538" stroke="#072538"></path><path d="M783 84L797 0L726 81Z" fill="#000e1c" stroke="#000e1c"></path><path d="M198 0L79 88L235 114Z" fill="#072538" stroke="#072538"></path><path d="M0 304L138 386L122 266Z" fill="#062c41" stroke="#062c41"></path><path d="M0 304L122 266L0 192Z" fill="#031320" stroke="#031320"></path><path d="M138 386L98 472L176 405Z" fill="#072538" stroke="#072538"></path><path d="M900 485L900 411L839 431Z" fill="#07283d" stroke="#07283d"></path><path d="M600 600L731 600L688 494Z" fill="#072538" stroke="#072538"></path><path d="M900 328L900 206L779 282Z" fill="#053046" stroke="#053046"></path><path d="M198 0L107 0L79 88Z" fill="#07283d" stroke="#07283d"></path><path d="M839 431L900 328L779 282Z" fill="#072538" stroke="#072538"></path><path d="M731 600L766 600L794 488Z" fill="#061a2a" stroke="#061a2a"></path><path d="M839 431L900 411L900 328Z" fill="#000e1c" stroke="#000e1c"></path><path d="M900 485L839 431L794 488Z" fill="#071d2e" stroke="#071d2e"></path><path d="M900 206L900 89L802 202Z" fill="#031320" stroke="#031320"></path><path d="M0 192L122 266L104 186Z" fill="#000e1c" stroke="#000e1c"></path><path d="M0 192L104 186L0 114Z" fill="#053046" stroke="#053046"></path><path d="M0 114L104 186L79 88Z" fill="#031320" stroke="#031320"></path><path d="M0 304L0 369L138 386Z" fill="#053046" stroke="#053046"></path><path d="M0 0L0 114L79 88Z" fill="#072133" stroke="#072133"></path><path d="M900 600L900 485L794 488Z" fill="#072133" stroke="#072133"></path><path d="M900 89L900 0L797 0Z" fill="#072133" stroke="#072133"></path><path d="M98 472L92 600L222 475Z" fill="#072133" stroke="#072133"></path><path d="M0 527L92 600L98 472Z" fill="#062c41" stroke="#062c41"></path><path d="M107 0L0 0L79 88Z" fill="#072133" stroke="#072133"></path><path d="M0 369L0 527L98 472Z" fill="#062c41" stroke="#062c41"></path><path d="M766 600L900 600L794 488Z" fill="#031320" stroke="#031320"></path><path d="M0 527L0 600L92 600Z" fill="#072538" stroke="#072538"></path></g></svg>